<mxfile host="Electron" agent="Mozilla/5.0 (Windows NT 10.0; Win64; x64) AppleWebKit/537.36 (KHTML, like Gecko) draw.io/27.0.9 Chrome/134.0.6998.205 Electron/35.4.0 Safari/537.36" version="27.0.9">
  <diagram name="Casos de Uso - Cartão Pré-Natal" id="rg98KbP32j3_lRcwBSLM">
    <mxGraphModel dx="2583" dy="2491" grid="1" gridSize="10" guides="1" tooltips="1" connect="1" arrows="1" fold="1" page="1" pageScale="1" pageWidth="720" pageHeight="720" math="0" shadow="0">
      <root>
        <mxCell id="0" />
        <mxCell id="1" parent="0" />
        <mxCell id="4SYaRgwsoekPIi1suFNW-2" value="Profissional de Saúde" style="shape=umlActor;verticalLabelPosition=bottom;verticalAlign=top;" parent="1" vertex="1">
          <mxGeometry x="60" y="-1030" width="30" height="60" as="geometry" />
        </mxCell>
        <mxCell id="4SYaRgwsoekPIi1suFNW-19" style="endArrow=none;" parent="1" source="4SYaRgwsoekPIi1suFNW-2" target="4SYaRgwsoekPIi1suFNW-10" edge="1">
          <mxGeometry relative="1" as="geometry" />
        </mxCell>
        <mxCell id="4SYaRgwsoekPIi1suFNW-20" style="endArrow=none;entryX=0;entryY=0.5;entryDx=0;entryDy=0;" parent="1" source="4SYaRgwsoekPIi1suFNW-2" target="UwUKINIicA0f2qMXyy2G-40" edge="1">
          <mxGeometry relative="1" as="geometry">
            <mxPoint x="291.0600000000002" y="-865.8399999999997" as="targetPoint" />
          </mxGeometry>
        </mxCell>
        <mxCell id="4SYaRgwsoekPIi1suFNW-21" style="endArrow=none;" parent="1" source="4SYaRgwsoekPIi1suFNW-2" target="4SYaRgwsoekPIi1suFNW-12" edge="1">
          <mxGeometry relative="1" as="geometry" />
        </mxCell>
        <mxCell id="UwUKINIicA0f2qMXyy2G-2" style="endArrow=none;entryX=0;entryY=1;entryDx=0;entryDy=0;" edge="1" parent="1" source="4SYaRgwsoekPIi1suFNW-2" target="UwUKINIicA0f2qMXyy2G-1">
          <mxGeometry relative="1" as="geometry">
            <mxPoint x="180" y="-1059" as="sourcePoint" />
            <mxPoint x="381" y="-1110" as="targetPoint" />
          </mxGeometry>
        </mxCell>
        <mxCell id="UwUKINIicA0f2qMXyy2G-3" value="FAP Web" style="swimlane;whiteSpace=wrap;html=1;" vertex="1" parent="1">
          <mxGeometry x="170" y="-1410" width="500" height="640" as="geometry" />
        </mxCell>
        <mxCell id="UwUKINIicA0f2qMXyy2G-1" value="Cadastrar-se" style="ellipse;whiteSpace=wrap;html=1;" vertex="1" parent="UwUKINIicA0f2qMXyy2G-3">
          <mxGeometry x="20" y="35" width="120" height="20" as="geometry" />
        </mxCell>
        <mxCell id="4SYaRgwsoekPIi1suFNW-10" value="Realizar login" style="ellipse;whiteSpace=wrap;html=1;" parent="UwUKINIicA0f2qMXyy2G-3" vertex="1">
          <mxGeometry x="40" y="65" width="120" height="20" as="geometry" />
        </mxCell>
        <mxCell id="4SYaRgwsoekPIi1suFNW-11" value="Listar pacientes" style="ellipse;whiteSpace=wrap;html=1;" parent="UwUKINIicA0f2qMXyy2G-3" vertex="1">
          <mxGeometry x="195" y="100" width="130" height="20" as="geometry" />
        </mxCell>
        <mxCell id="4SYaRgwsoekPIi1suFNW-12" value="Cadastrar paciente" style="ellipse;whiteSpace=wrap;html=1;" parent="UwUKINIicA0f2qMXyy2G-3" vertex="1">
          <mxGeometry x="150" y="45" width="120" height="20" as="geometry" />
        </mxCell>
        <mxCell id="UwUKINIicA0f2qMXyy2G-8" value="Editar paciente" style="ellipse;whiteSpace=wrap;html=1;" vertex="1" parent="UwUKINIicA0f2qMXyy2G-3">
          <mxGeometry x="180" y="130" width="120" height="20" as="geometry" />
        </mxCell>
        <mxCell id="UwUKINIicA0f2qMXyy2G-9" value="Excluir paciente" style="ellipse;whiteSpace=wrap;html=1;" vertex="1" parent="UwUKINIicA0f2qMXyy2G-3">
          <mxGeometry x="164" y="160" width="120" height="20" as="geometry" />
        </mxCell>
        <mxCell id="UwUKINIicA0f2qMXyy2G-27" value="Listar consultas do paciente" style="ellipse;whiteSpace=wrap;html=1;" vertex="1" parent="UwUKINIicA0f2qMXyy2G-3">
          <mxGeometry x="315" y="190" width="180" height="25" as="geometry" />
        </mxCell>
        <mxCell id="UwUKINIicA0f2qMXyy2G-28" value="Cadastrar consulta do paciente" style="ellipse;whiteSpace=wrap;html=1;" vertex="1" parent="UwUKINIicA0f2qMXyy2G-3">
          <mxGeometry x="310" y="155" width="190" height="25" as="geometry" />
        </mxCell>
        <mxCell id="UwUKINIicA0f2qMXyy2G-29" value="Buscar consulta do paciente" style="ellipse;whiteSpace=wrap;html=1;" vertex="1" parent="UwUKINIicA0f2qMXyy2G-3">
          <mxGeometry x="295" y="220" width="195" height="20" as="geometry" />
        </mxCell>
        <mxCell id="UwUKINIicA0f2qMXyy2G-30" value="Editar consulta do paciente" style="ellipse;whiteSpace=wrap;html=1;" vertex="1" parent="UwUKINIicA0f2qMXyy2G-3">
          <mxGeometry x="305" y="250" width="190" height="25" as="geometry" />
        </mxCell>
        <mxCell id="UwUKINIicA0f2qMXyy2G-31" value="Excluir consulta do paciente" style="ellipse;whiteSpace=wrap;html=1;" vertex="1" parent="UwUKINIicA0f2qMXyy2G-3">
          <mxGeometry x="310" y="280" width="180" height="25" as="geometry" />
        </mxCell>
        <mxCell id="UwUKINIicA0f2qMXyy2G-39" value="Listar enderecos do paciente" style="ellipse;whiteSpace=wrap;html=1;" vertex="1" parent="UwUKINIicA0f2qMXyy2G-3">
          <mxGeometry x="205" y="352.5" width="180" height="25" as="geometry" />
        </mxCell>
        <mxCell id="UwUKINIicA0f2qMXyy2G-40" value="Cadastrar endereco do paciente" style="ellipse;whiteSpace=wrap;html=1;" vertex="1" parent="UwUKINIicA0f2qMXyy2G-3">
          <mxGeometry x="195" y="320" width="190" height="25" as="geometry" />
        </mxCell>
        <mxCell id="UwUKINIicA0f2qMXyy2G-41" value="Buscar endereco do paciente" style="ellipse;whiteSpace=wrap;html=1;" vertex="1" parent="UwUKINIicA0f2qMXyy2G-3">
          <mxGeometry x="205" y="380" width="195" height="20" as="geometry" />
        </mxCell>
        <mxCell id="UwUKINIicA0f2qMXyy2G-42" value="Editar endereco do paciente" style="ellipse;whiteSpace=wrap;html=1;" vertex="1" parent="UwUKINIicA0f2qMXyy2G-3">
          <mxGeometry x="205" y="410" width="190" height="25" as="geometry" />
        </mxCell>
        <mxCell id="UwUKINIicA0f2qMXyy2G-43" value="Excluir endereco do paciente" style="ellipse;whiteSpace=wrap;html=1;" vertex="1" parent="UwUKINIicA0f2qMXyy2G-3">
          <mxGeometry x="215" y="440" width="180" height="25" as="geometry" />
        </mxCell>
        <mxCell id="UwUKINIicA0f2qMXyy2G-5" value="Buscar paciente" style="ellipse;whiteSpace=wrap;html=1;" vertex="1" parent="UwUKINIicA0f2qMXyy2G-3">
          <mxGeometry x="200" y="70" width="120" height="20" as="geometry" />
        </mxCell>
        <mxCell id="UwUKINIicA0f2qMXyy2G-51" value="Listar exames do paciente" style="ellipse;whiteSpace=wrap;html=1;" vertex="1" parent="UwUKINIicA0f2qMXyy2G-3">
          <mxGeometry x="300" y="502.5" width="180" height="25" as="geometry" />
        </mxCell>
        <mxCell id="UwUKINIicA0f2qMXyy2G-52" value="Cadastrar exame do paciente" style="ellipse;whiteSpace=wrap;html=1;" vertex="1" parent="UwUKINIicA0f2qMXyy2G-3">
          <mxGeometry x="299" y="470" width="190" height="25" as="geometry" />
        </mxCell>
        <mxCell id="UwUKINIicA0f2qMXyy2G-53" value="Buscar exame do paciente" style="ellipse;whiteSpace=wrap;html=1;" vertex="1" parent="UwUKINIicA0f2qMXyy2G-3">
          <mxGeometry x="290" y="540" width="195" height="20" as="geometry" />
        </mxCell>
        <mxCell id="UwUKINIicA0f2qMXyy2G-54" value="Editar exame do paciente" style="ellipse;whiteSpace=wrap;html=1;" vertex="1" parent="UwUKINIicA0f2qMXyy2G-3">
          <mxGeometry x="265" y="565" width="190" height="25" as="geometry" />
        </mxCell>
        <mxCell id="UwUKINIicA0f2qMXyy2G-55" value="Excluir exame do paciente" style="ellipse;whiteSpace=wrap;html=1;" vertex="1" parent="UwUKINIicA0f2qMXyy2G-3">
          <mxGeometry x="260" y="600" width="180" height="25" as="geometry" />
        </mxCell>
        <mxCell id="UwUKINIicA0f2qMXyy2G-4" style="endArrow=none;entryX=0;entryY=0.5;entryDx=0;entryDy=0;exitX=1;exitY=0.3333333333333333;exitDx=0;exitDy=0;exitPerimeter=0;" edge="1" parent="1" source="4SYaRgwsoekPIi1suFNW-2" target="4SYaRgwsoekPIi1suFNW-11">
          <mxGeometry relative="1" as="geometry">
            <mxPoint x="80" y="-1030" as="sourcePoint" />
            <mxPoint x="461" y="-859" as="targetPoint" />
          </mxGeometry>
        </mxCell>
        <mxCell id="UwUKINIicA0f2qMXyy2G-7" style="endArrow=none;entryX=0;entryY=0.5;entryDx=0;entryDy=0;" edge="1" parent="1" source="4SYaRgwsoekPIi1suFNW-2" target="UwUKINIicA0f2qMXyy2G-5">
          <mxGeometry relative="1" as="geometry">
            <mxPoint x="310" y="-940" as="sourcePoint" />
            <mxPoint x="480" y="-1040" as="targetPoint" />
          </mxGeometry>
        </mxCell>
        <mxCell id="UwUKINIicA0f2qMXyy2G-10" style="endArrow=none;entryX=0;entryY=0.5;entryDx=0;entryDy=0;" edge="1" parent="1" source="4SYaRgwsoekPIi1suFNW-2" target="UwUKINIicA0f2qMXyy2G-8">
          <mxGeometry relative="1" as="geometry">
            <mxPoint x="280" y="-950" as="sourcePoint" />
            <mxPoint x="491.0600000000002" y="-796.8399999999997" as="targetPoint" />
          </mxGeometry>
        </mxCell>
        <mxCell id="UwUKINIicA0f2qMXyy2G-25" style="endArrow=none;entryX=0;entryY=0.5;entryDx=0;entryDy=0;" edge="1" parent="1" source="4SYaRgwsoekPIi1suFNW-2" target="UwUKINIicA0f2qMXyy2G-9">
          <mxGeometry relative="1" as="geometry">
            <mxPoint x="370" y="-1001" as="sourcePoint" />
            <mxPoint x="740" y="-1020" as="targetPoint" />
          </mxGeometry>
        </mxCell>
        <mxCell id="UwUKINIicA0f2qMXyy2G-33" style="endArrow=none;entryX=0;entryY=0.5;entryDx=0;entryDy=0;" edge="1" parent="1" source="4SYaRgwsoekPIi1suFNW-2" target="UwUKINIicA0f2qMXyy2G-28">
          <mxGeometry relative="1" as="geometry">
            <mxPoint x="310" y="-960" as="sourcePoint" />
            <mxPoint x="481.0600000000002" y="-799.8399999999997" as="targetPoint" />
          </mxGeometry>
        </mxCell>
        <mxCell id="UwUKINIicA0f2qMXyy2G-34" style="endArrow=none;entryX=0;entryY=0.5;entryDx=0;entryDy=0;" edge="1" parent="1" source="4SYaRgwsoekPIi1suFNW-2" target="UwUKINIicA0f2qMXyy2G-27">
          <mxGeometry relative="1" as="geometry">
            <mxPoint x="330" y="-910" as="sourcePoint" />
            <mxPoint x="501.0600000000002" y="-749.8399999999997" as="targetPoint" />
          </mxGeometry>
        </mxCell>
        <mxCell id="UwUKINIicA0f2qMXyy2G-35" style="endArrow=none;entryX=0;entryY=0.5;entryDx=0;entryDy=0;" edge="1" parent="1" source="4SYaRgwsoekPIi1suFNW-2" target="UwUKINIicA0f2qMXyy2G-29">
          <mxGeometry relative="1" as="geometry">
            <mxPoint x="280" y="-970" as="sourcePoint" />
            <mxPoint x="451.0600000000002" y="-809.8399999999997" as="targetPoint" />
          </mxGeometry>
        </mxCell>
        <mxCell id="UwUKINIicA0f2qMXyy2G-36" style="endArrow=none;entryX=0;entryY=0.5;entryDx=0;entryDy=0;" edge="1" parent="1" source="4SYaRgwsoekPIi1suFNW-2" target="UwUKINIicA0f2qMXyy2G-30">
          <mxGeometry relative="1" as="geometry">
            <mxPoint x="340" y="-910" as="sourcePoint" />
            <mxPoint x="511.0600000000002" y="-749.8399999999997" as="targetPoint" />
          </mxGeometry>
        </mxCell>
        <mxCell id="UwUKINIicA0f2qMXyy2G-37" style="endArrow=none;entryX=0;entryY=0.5;entryDx=0;entryDy=0;" edge="1" parent="1" source="4SYaRgwsoekPIi1suFNW-2" target="UwUKINIicA0f2qMXyy2G-31">
          <mxGeometry relative="1" as="geometry">
            <mxPoint x="360" y="-890" as="sourcePoint" />
            <mxPoint x="531.0600000000002" y="-729.8399999999997" as="targetPoint" />
          </mxGeometry>
        </mxCell>
        <mxCell id="UwUKINIicA0f2qMXyy2G-44" style="endArrow=none;entryX=0;entryY=0.5;entryDx=0;entryDy=0;" edge="1" parent="1" source="4SYaRgwsoekPIi1suFNW-2" target="UwUKINIicA0f2qMXyy2G-39">
          <mxGeometry relative="1" as="geometry">
            <mxPoint x="340" y="-850" as="sourcePoint" />
            <mxPoint x="635" y="-686" as="targetPoint" />
          </mxGeometry>
        </mxCell>
        <mxCell id="UwUKINIicA0f2qMXyy2G-45" style="endArrow=none;entryX=0;entryY=0.5;entryDx=0;entryDy=0;" edge="1" parent="1" source="4SYaRgwsoekPIi1suFNW-2" target="UwUKINIicA0f2qMXyy2G-41">
          <mxGeometry relative="1" as="geometry">
            <mxPoint x="116" y="-1018" as="sourcePoint" />
            <mxPoint x="665" y="-636" as="targetPoint" />
          </mxGeometry>
        </mxCell>
        <mxCell id="UwUKINIicA0f2qMXyy2G-46" style="endArrow=none;entryX=0;entryY=0.5;entryDx=0;entryDy=0;" edge="1" parent="1" source="4SYaRgwsoekPIi1suFNW-2" target="UwUKINIicA0f2qMXyy2G-42">
          <mxGeometry relative="1" as="geometry">
            <mxPoint x="330" y="-810" as="sourcePoint" />
            <mxPoint x="625" y="-646" as="targetPoint" />
          </mxGeometry>
        </mxCell>
        <mxCell id="UwUKINIicA0f2qMXyy2G-47" style="endArrow=none;entryX=0;entryY=0.5;entryDx=0;entryDy=0;" edge="1" parent="1" source="4SYaRgwsoekPIi1suFNW-2" target="UwUKINIicA0f2qMXyy2G-43">
          <mxGeometry relative="1" as="geometry">
            <mxPoint x="320" y="-790" as="sourcePoint" />
            <mxPoint x="615" y="-626" as="targetPoint" />
          </mxGeometry>
        </mxCell>
        <mxCell id="UwUKINIicA0f2qMXyy2G-48" value="" style="endArrow=none;entryX=0;entryY=0.5;entryDx=0;entryDy=0;" edge="1" parent="1" source="4SYaRgwsoekPIi1suFNW-2" target="UwUKINIicA0f2qMXyy2G-5">
          <mxGeometry relative="1" as="geometry">
            <mxPoint x="90" y="-1047" as="sourcePoint" />
            <mxPoint x="425" y="-1305" as="targetPoint" />
          </mxGeometry>
        </mxCell>
        <mxCell id="UwUKINIicA0f2qMXyy2G-56" style="endArrow=none;entryX=0;entryY=0.5;entryDx=0;entryDy=0;" edge="1" parent="1" source="4SYaRgwsoekPIi1suFNW-2" target="UwUKINIicA0f2qMXyy2G-52">
          <mxGeometry relative="1" as="geometry">
            <mxPoint x="90" y="-1030" as="sourcePoint" />
            <mxPoint x="580" y="-885" as="targetPoint" />
          </mxGeometry>
        </mxCell>
        <mxCell id="UwUKINIicA0f2qMXyy2G-57" style="endArrow=none;entryX=0;entryY=0.5;entryDx=0;entryDy=0;" edge="1" parent="1" source="4SYaRgwsoekPIi1suFNW-2" target="UwUKINIicA0f2qMXyy2G-51">
          <mxGeometry relative="1" as="geometry">
            <mxPoint x="270" y="-900" as="sourcePoint" />
            <mxPoint x="590" y="-825" as="targetPoint" />
          </mxGeometry>
        </mxCell>
        <mxCell id="UwUKINIicA0f2qMXyy2G-58" style="endArrow=none;entryX=0;entryY=0.5;entryDx=0;entryDy=0;" edge="1" parent="1" source="4SYaRgwsoekPIi1suFNW-2" target="UwUKINIicA0f2qMXyy2G-53">
          <mxGeometry relative="1" as="geometry">
            <mxPoint x="250" y="-870" as="sourcePoint" />
            <mxPoint x="570" y="-795" as="targetPoint" />
          </mxGeometry>
        </mxCell>
        <mxCell id="UwUKINIicA0f2qMXyy2G-59" style="endArrow=none;entryX=0;entryY=0.5;entryDx=0;entryDy=0;" edge="1" parent="1" source="4SYaRgwsoekPIi1suFNW-2" target="UwUKINIicA0f2qMXyy2G-54">
          <mxGeometry relative="1" as="geometry">
            <mxPoint x="85" y="-1020" as="sourcePoint" />
            <mxPoint x="540" y="-775" as="targetPoint" />
          </mxGeometry>
        </mxCell>
        <mxCell id="UwUKINIicA0f2qMXyy2G-60" style="endArrow=none;entryX=0;entryY=0.5;entryDx=0;entryDy=0;" edge="1" parent="1" source="4SYaRgwsoekPIi1suFNW-2" target="UwUKINIicA0f2qMXyy2G-55">
          <mxGeometry relative="1" as="geometry">
            <mxPoint x="130" y="-850" as="sourcePoint" />
            <mxPoint x="450" y="-775" as="targetPoint" />
          </mxGeometry>
        </mxCell>
      </root>
    </mxGraphModel>
  </diagram>
</mxfile>
